<svg xmlns="http://www.w3.org/2000/svg" viewBox="0 0 520 220" role="img" aria-label="KitchenAid">
  <defs>
    <linearGradient id="g" x1="0" x2="1" y1="0" y2="1">
      <stop offset="0" stop-color="#e94b3c" stop-opacity="0.95"/>
      <stop offset="1" stop-color="#ffd166" stop-opacity="0.95"/>
    </linearGradient>
  </defs>
  <rect width="520" height="220" rx="28" fill="#ffffff" opacity="0.96"/>
  <rect x="18" y="18" width="484" height="184" rx="22" fill="none" stroke="#e5e7eb" stroke-width="4"/>
  <circle cx="78" cy="110" r="44" fill="url(#g)"/>
  <path d="M66 96c6-6 16-6 22 0l-8 8 10 10 8-8c6 6 6 16 0 22l-7 7-18-18-7 7c-2 2-5 2-7 0l-3-3c-2-2-2-5 0-7l7-7-5-5 6-6z" fill="#0b3c5d" opacity="0.9"/>
  <text x="150" y="120" font-family="system-ui,Segoe UI,Roboto,Arial" font-size="34" fill="#0b3c5d" font-weight="900">KitchenAid</text>
  <text x="150" y="154" font-family="system-ui,Segoe UI,Roboto,Arial" font-size="16" fill="#6b7280" font-weight="650">Service supported</text>
</svg>